<svg width="34" height="57" viewBox="0 0 34 57" fill="none" xmlns="http://www.w3.org/2000/svg">
<path fill-rule="evenodd" clip-rule="evenodd" d="M3.42939 7.38165L9.74928 14.2256C14.3055 10.217 19.7435 10.217 24.2997 14.2256L30.5706 7.38165C22.438 0.09777 11.562 0.09777 3.42939 7.38165ZM17 36.6149C20.0375 36.3216 22.9769 34.9528 25.2305 32.5575C25.3775 32.4108 25.4755 32.2642 25.5735 32.1664L32.4323 38.4726C32.2853 38.6192 32.1873 38.7659 32.0403 38.8636L17.049 55.1424L17 55.0935L16.951 55.1424L1.95965 38.8148C1.86167 38.6681 1.7147 38.5214 1.56772 38.4237L8.42651 32.1175C8.57349 32.2642 8.67147 32.4108 8.76945 32.5086C11.0231 34.9528 13.9625 36.3216 17 36.6149Z" fill="#43AF92"/>
<path fill-rule="evenodd" clip-rule="evenodd" d="M25.6715 23.7093C25.6715 28.5 21.8012 32.3619 17 32.3619C12.1988 32.3619 8.32853 28.5 8.32853 23.7093C8.32853 18.9674 12.1988 15.0566 17 15.0566C21.7522 15.0566 25.6715 18.9674 25.6715 23.7093Z" fill="#0F1130"/>
</svg>
