<svg width="75" height="75" viewBox="0 0 75 75" fill="none" xmlns="http://www.w3.org/2000/svg">
<circle cx="37.5" cy="37.5" r="35.5" fill="#71CAFC" stroke="white" stroke-width="4"/>
<g clip-path="url(#clip0_54_12)">
<path d="M49 21V23H41V21H35V23H27V21H21V55H55V21H49ZM51 23H53V46.4405C52.1896 46.8419 51.8943 47.2621 51 47.3247V23ZM41 38C41.2203 32.6921 48.7816 32.6963 49 38V46.7225C47.4944 45.6943 45.2486 45.7943 43.8429 46.8197C43.3676 47.1179 43.0242 47.3333 42.2493 47.3333C41.6703 47.3333 41.3323 47.2129 41 47.0276V38ZM49 25V33.532C46.7198 31.4885 43.2791 31.4894 41 33.532V25H49ZM37 23H39V46.0967C38.3703 45.9674 37.6298 45.9674 37 46.0965V23ZM27 38C27.2203 32.6921 34.7816 32.6963 35 38V47.0271C34.6675 47.2127 34.3293 47.3333 33.7497 47.3333C32.0748 47.3333 31.9103 46 29.4997 46C28.2676 46 27.5571 46.3783 27 46.722V38ZM35 25V33.532C32.7198 31.4885 29.2791 31.4894 27 33.532V25H35ZM25 23V47.3247C24.1057 47.2622 23.8102 46.8422 23 46.4406V23H25ZM53 53H23L23.0001 48.7601C24.503 49.6613 26.6428 49.4449 27.9063 48.5137C28.3816 48.2155 28.725 48 29.4997 48C31.1747 48 31.339 49.3333 33.7497 49.3333C35.0999 49.3333 35.8241 48.8789 36.4061 48.5137C36.8813 48.2155 37.2247 48 37.9994 48C39.6743 48 39.8387 49.3333 42.2493 49.3333C44.6819 49.3329 44.7931 47.9933 46.4994 48C48.1751 48 48.3389 49.3333 50.7497 49.3333C51.8053 49.3333 52.4785 49.0555 53 48.7598V53Z" fill="white"/>
</g>
<defs>
<clipPath id="clip0_54_12">
<rect width="34" height="34" fill="white" transform="translate(21 21)"/>
</clipPath>
</defs>
</svg>
