<svg width="125" height="57" viewBox="0 0 125 57" fill="none" xmlns="http://www.w3.org/2000/svg">
<path fill-rule="evenodd" clip-rule="evenodd" d="M3.42939 7.38165L9.74928 14.2256C14.3055 10.217 19.7435 10.217 24.2997 14.2256L30.5706 7.38165C22.438 0.09777 11.562 0.09777 3.42939 7.38165ZM17 36.6149C20.0375 36.3216 22.9769 34.9528 25.2305 32.5575C25.3775 32.4108 25.4755 32.2642 25.5735 32.1664L32.4323 38.4726C32.2853 38.6192 32.1873 38.7659 32.0403 38.8636L17.049 55.1424L17 55.0935L16.951 55.1424L1.95965 38.8148C1.86167 38.6681 1.7147 38.5214 1.56772 38.4237L8.42651 32.1175C8.57349 32.2642 8.67147 32.4108 8.76945 32.5086C11.0231 34.9528 13.9625 36.3216 17 36.6149Z" fill="#43AF92"/>
<path fill-rule="evenodd" clip-rule="evenodd" d="M25.6715 23.7093C25.6715 28.5 21.8012 32.3619 17 32.3619C12.1988 32.3619 8.32853 28.5 8.32853 23.7093C8.32853 18.9674 12.1988 15.0566 17 15.0566C21.7522 15.0566 25.6715 18.9674 25.6715 23.7093Z" fill="#0F1130"/>
<path d="M43.744 27.62C43.744 32.564 44.488 36.932 49.456 36.62C51.376 36.5 51.76 36.212 52.432 35.324L53.752 36.5H57.04V26.036C56.464 25.988 55.912 25.964 55.408 25.964C53.824 25.964 52.288 25.988 51.208 26.564V29.444H52.384V31.244C52.384 31.244 52.144 32.348 50.656 32.348C48.544 32.348 48.4 31.604 48.4 27.668C48.4 23.756 48.784 22.676 51.016 22.676C54.064 22.676 56.728 23.204 56.872 23.204V19.628C53.632 18.74 53.392 18.74 49.576 18.74C44.8 18.74 43.744 22.268 43.744 27.62ZM62.8536 28.868C62.8056 27.044 63.0936 26.876 64.1016 26.876C64.9176 26.876 64.9416 27.236 64.9416 28.1C64.9416 28.556 64.6536 28.868 64.2456 28.868H62.8536ZM58.1976 30.068C58.1976 34.484 59.1576 36.62 62.3976 36.62C64.3896 36.62 67.6776 36.716 69.3576 35.948V32.924C67.5576 33.188 67.4856 33.188 65.7576 33.188C63.9816 33.188 62.8536 33.548 62.8536 31.82H65.8296C68.1336 31.82 69.5976 31.028 69.5976 28.412C69.5976 24.188 68.0136 23.66 63.7656 23.66C59.6376 23.66 58.1976 24.764 58.1976 30.068ZM75.223 30.308C75.223 27.572 75.127 27.092 76.543 27.092C77.887 27.092 77.863 27.548 77.863 30.308C77.863 32.972 77.863 33.164 76.543 33.164C75.319 33.164 75.223 32.828 75.223 30.308ZM70.567 30.308C70.567 34.868 72.055 36.62 76.543 36.62C81.127 36.62 82.519 35.036 82.519 30.308C82.519 25.244 81.007 23.636 76.543 23.636C72.127 23.636 70.567 25.1 70.567 30.308Z" fill="#0F1130"/>
<path d="M84.4081 36.5H87.7921V25.268L94.7761 36.5H98.1361V18.932H94.7761V30.284L87.8161 18.932H84.4081V36.5ZM103.05 32.78V32.156C103.05 31.604 103.194 30.932 104.082 30.86L107.178 30.62V32.948C107.178 32.948 105.642 33.956 104.25 33.956C103.626 33.956 103.05 33.836 103.05 32.78ZM99.6897 33.26C99.6897 34.916 100.842 36.572 103.29 36.644C105.234 36.692 107.034 35.372 107.178 35.108L107.874 36.5H110.538V27.62C110.538 24.452 108.666 23.516 105.93 23.516C103.554 23.516 101.802 23.708 100.122 24.356V26.444C101.154 26.372 104.346 26.18 105.474 26.18C106.53 26.18 107.178 26.372 107.178 27.74C107.202 27.764 107.178 28.556 107.178 28.556C107.178 28.58 103.434 28.556 103.434 28.556C100.698 28.556 99.6897 30.188 99.6897 32.06V33.26ZM111.066 23.756L115.506 36.5H119.274L123.906 23.756H120.306L117.45 32.564L114.666 23.756H111.066Z" fill="#43AF92"/>
</svg>
