<svg width="75" height="75" viewBox="0 0 75 75" fill="none" xmlns="http://www.w3.org/2000/svg">
<circle cx="37.5" cy="37.5" r="35.5" fill="#F9A347" stroke="white" stroke-width="4"/>
<path d="M44.4718 50.274L43.4584 42.161C43.3148 41.0119 42.7564 39.9548 41.888 39.1885C41.0197 38.4222 39.9014 37.9996 38.7433 38H35.2536C34.0961 38.0003 32.9785 38.4233 32.1108 39.1895C31.2432 39.9557 30.6851 41.0124 30.5416 42.161L29.5267 50.274C29.471 50.7197 29.5108 51.1722 29.6434 51.6014C29.7759 52.0306 29.9983 52.4266 30.2957 52.7633C30.5931 53.0999 30.9588 53.3694 31.3683 53.5539C31.7779 53.7384 32.222 53.8337 32.6712 53.8333H41.3289C41.7779 53.8334 42.2219 53.738 42.6312 53.5534C43.0406 53.3688 43.406 53.0993 43.7033 52.7627C44.0005 52.4261 44.2227 52.0301 44.3552 51.601C44.4877 51.1719 44.5275 50.7196 44.4718 50.274Z" stroke="white" stroke-width="3" stroke-linecap="round" stroke-linejoin="round"/>
<path d="M37 31.6667C39.6234 31.6667 41.75 29.54 41.75 26.9167C41.75 24.2933 39.6234 22.1667 37 22.1667C34.3766 22.1667 32.25 24.2933 32.25 26.9167C32.25 29.54 34.3766 31.6667 37 31.6667Z" stroke="white" stroke-width="3"/>
<path d="M24.3334 36.4167C26.0823 36.4167 27.5 34.9989 27.5 33.25C27.5 31.5011 26.0823 30.0834 24.3334 30.0834C22.5845 30.0834 21.1667 31.5011 21.1667 33.25C21.1667 34.9989 22.5845 36.4167 24.3334 36.4167Z" stroke="white" stroke-width="3"/>
<path d="M49.6667 36.4167C51.4156 36.4167 52.8333 34.9989 52.8333 33.25C52.8333 31.5011 51.4156 30.0834 49.6667 30.0834C47.9178 30.0834 46.5 31.5011 46.5 33.25C46.5 34.9989 47.9178 36.4167 49.6667 36.4167Z" stroke="white" stroke-width="3"/>
<path d="M24.3333 41.1667H23.8488C23.0992 41.1666 22.3739 41.4324 21.8019 41.9169C21.2299 42.4014 20.8482 43.073 20.7249 43.8124L20.1977 46.9791C20.122 47.4328 20.1461 47.8975 20.2682 48.341C20.3904 48.7844 20.6077 49.1959 20.905 49.5469C21.2023 49.8979 21.5725 50.1798 21.9898 50.3732C22.4072 50.5666 22.8616 50.6667 23.3216 50.6667H29.0833M49.6667 41.1667H50.1512C50.9008 41.1666 51.6261 41.4324 52.1981 41.9169C52.7702 42.4014 53.1518 43.073 53.2751 43.8124L53.8023 46.9791C53.878 47.4328 53.8539 47.8975 53.7318 48.341C53.6096 48.7844 53.3923 49.1959 53.095 49.5469C52.7977 49.8979 52.4275 50.1798 52.0102 50.3732C51.5928 50.5666 51.1384 50.6667 50.6784 50.6667H44.9167" stroke="white" stroke-width="3" stroke-linecap="round" stroke-linejoin="round"/>
</svg>
