<svg width="75" height="75" viewBox="0 0 75 75" fill="none" xmlns="http://www.w3.org/2000/svg">
<circle cx="37.5" cy="37.5" r="35.5" fill="#9547F9" stroke="white" stroke-width="4"/>
<path d="M27.6667 26.3334C25 26.3334 25 29 27.6667 29H38.3333V31.6667C37.5947 31.6667 37 32.2614 37 33V34.3334H27.4853C27.16 33.079 26.3886 31.9862 25.3155 31.2595C24.2425 30.5328 22.9415 30.2222 21.6559 30.3856C20.3703 30.5491 19.1884 31.1755 18.3314 32.1476C17.4744 33.1197 17.0011 34.3708 17 35.6667C17 37.0812 17.5619 38.4377 18.5621 39.4379C19.5623 40.4381 20.9188 41 22.3333 41C23.3263 40.9974 24.2988 40.7175 25.1413 40.192L31.6667 49C34.352 52.8667 39.1813 53 41 53H54.3333C54.3333 53 57 53 57 50.3334V47.6827C57 45.728 56.664 44.664 55.6667 43.6667L47.6667 35.6667C47.6667 35.6667 46.088 34.3334 44.272 34.3334H42.3333V33C42.3333 32.2614 41.7387 31.6667 41 31.6667V29H51.6667C54.3333 29 54.3333 26.3334 51.6667 26.3334H27.6667ZM22.3333 33C23.0406 33 23.7189 33.281 24.219 33.7811C24.719 34.2812 25 34.9595 25 35.6667C25 36.374 24.719 37.0522 24.219 37.5523C23.7189 38.0524 23.0406 38.3334 22.3333 38.3334C21.6261 38.3334 20.9478 38.0524 20.4477 37.5523C19.9476 37.0522 19.6667 36.374 19.6667 35.6667C19.6667 34.9595 19.9476 34.2812 20.4477 33.7811C20.9478 33.281 21.6261 33 22.3333 33ZM43.6667 37C45 37 45.7733 37.8614 46.3333 38.3334L53 45H43.6667C43.6667 45 41 45 41 42.3334V39.6667C41 39.6667 41 37 43.6667 37Z" fill="white"/>
</svg>
