<svg width="75" height="75" viewBox="0 0 75 75" fill="none" xmlns="http://www.w3.org/2000/svg">
<circle cx="37.5" cy="37.5" r="35.5" fill="#DA5AA7" stroke="white" stroke-width="4"/>
<g clip-path="url(#clip0_54_11)">
<g clip-path="url(#clip1_54_11)">
<path d="M33.1641 54.916L35.2252 48.2675H33.1641L35.2252 41.7636H33.1641L35.2252 35.2597M39.7748 35.2597L41.8359 41.7636H39.7748L41.8359 48.2675H39.7748L41.8359 54.916M32.2661 30.9238L25.2361 23.8938C26.9293 22.2006 29.6747 22.2006 31.368 23.8938L35.332 27.8578M39.668 27.8578L43.6319 23.8938C45.3252 22.2006 48.0706 22.2006 49.7639 23.8938L42.7339 30.9238" stroke="white" stroke-width="2" stroke-miterlimit="10" stroke-linecap="round" stroke-linejoin="round"/>
<path d="M35.332 31.5039V25.3179C35.332 24.3459 35.5235 23.3834 35.8955 22.4853C36.2674 21.5873 36.8127 20.7713 37.5 20.084C38.1873 20.7713 38.7326 21.5873 39.1045 22.4853C39.4765 23.3834 39.668 24.3459 39.668 25.3179V31.5039M20.084 54.916H54.916" stroke="white" stroke-width="2" stroke-miterlimit="10" stroke-linecap="round" stroke-linejoin="round"/>
<path d="M26.6602 54.916C27.8575 54.916 28.8281 53.9454 28.8281 52.748C28.8281 51.5507 27.8575 50.5801 26.6602 50.5801C25.4628 50.5801 24.4922 51.5507 24.4922 52.748C24.4922 53.9454 25.4628 54.916 26.6602 54.916Z" stroke="white" stroke-width="2" stroke-miterlimit="10" stroke-linecap="round" stroke-linejoin="round"/>
<path d="M37.5 35.2598H22.3242C22.3242 32.8651 24.2655 30.9238 26.6602 30.9238H33.1641C35.5587 30.9238 37.5 32.8651 37.5 35.2598ZM37.5 35.2598H52.6758C52.6758 32.8651 50.7345 30.9238 48.3398 30.9238H41.8359C39.4413 30.9238 37.5 32.8651 37.5 35.2598Z" stroke="white" stroke-width="2" stroke-miterlimit="10" stroke-linecap="round" stroke-linejoin="round"/>
</g>
</g>
<defs>
<clipPath id="clip0_54_11">
<rect width="37" height="37" fill="white" transform="translate(19 19)"/>
</clipPath>
<clipPath id="clip1_54_11">
<rect width="37" height="37" fill="white" transform="translate(19 19)"/>
</clipPath>
</defs>
</svg>
