<svg width="75" height="75" viewBox="0 0 75 75" fill="none" xmlns="http://www.w3.org/2000/svg">
<circle cx="37.5" cy="37.5" r="35.5" fill="#367ED3" stroke="white" stroke-width="4"/>
<path d="M46.75 32.75H50.25V29.25H46.75V32.75ZM46.75 39.75H50.25V36.25H46.75V39.75ZM46.75 46.75H50.25V43.25H46.75V46.75ZM46.75 53.75V50.25H53.75V25.75H38V28.2L34.5 25.6625C34.5 24.7292 34.843 23.9271 35.529 23.2563C36.2138 22.5854 37.0375 22.25 38 22.25H53.75C54.7125 22.25 55.5368 22.5924 56.2228 23.2772C56.9076 23.9632 57.25 24.7875 57.25 25.75V50.25C57.25 51.2125 56.9076 52.0368 56.2228 52.7228C55.5368 53.4076 54.7125 53.75 53.75 53.75H46.75ZM18.75 52V38.0437C18.75 37.4604 18.8813 36.9208 19.1438 36.425C19.4063 35.9292 19.7708 35.5208 20.2375 35.2L28.9875 28.9437C29.6 28.5062 30.2708 28.2875 31 28.2875C31.7292 28.2875 32.4 28.5062 33.0125 28.9437L41.7625 35.2C42.2292 35.5208 42.5937 35.9292 42.8562 36.425C43.1187 36.9208 43.25 37.4604 43.25 38.0437V52C43.25 52.4958 43.0826 52.9112 42.7478 53.246C42.4118 53.582 41.9958 53.75 41.5 53.75H32.75V45H29.25V53.75H20.5C20.0042 53.75 19.5888 53.582 19.254 53.246C18.918 52.9112 18.75 52.4958 18.75 52ZM22.25 50.25H25.75V41.5H36.25V50.25H39.75V38L31 31.7875L22.25 38V50.25Z" fill="white"/>
</svg>
