<svg width="75" height="75" viewBox="0 0 75 75" fill="none" xmlns="http://www.w3.org/2000/svg">
<circle cx="37.5" cy="37.5" r="35.5" fill="#7CCD3C" stroke="white" stroke-width="4"/>
<path d="M37 56.3333C36.0222 56.3333 35.1819 55.9819 34.4791 55.2791C33.7764 54.5763 33.425 53.7361 33.425 52.7583V49H23.9375C23.2041 49 22.6541 48.6791 22.2875 48.0375C21.9208 47.3958 21.9514 46.7694 22.3791 46.1583L27.8333 38H27.6958C26.9625 38 26.4198 37.6712 26.0678 37.0136C25.717 36.3573 25.7555 35.7236 26.1833 35.1125L35.4875 21.8208C35.6708 21.5763 35.9 21.3851 36.175 21.247C36.45 21.1101 36.725 21.0416 37 21.0416C37.275 21.0416 37.55 21.1101 37.825 21.247C38.1 21.3851 38.3291 21.5763 38.5125 21.8208L47.8166 35.1125C48.2444 35.7236 48.2823 36.3573 47.9303 37.0136C47.5795 37.6712 47.0375 38 46.3041 38H46.1666L51.6208 46.1583C52.0486 46.7694 52.0791 47.3958 51.7125 48.0375C51.3458 48.6791 50.7958 49 50.0625 49H40.575V52.7583C40.575 53.7361 40.2236 54.5763 39.5208 55.2791C38.818 55.9819 37.9778 56.3333 37 56.3333ZM27.375 45.3333H34.7083H31.225H42.775H39.2916H46.625H27.375ZM27.375 45.3333H46.625L39.2916 34.3333H42.775L37 26.0833L31.225 34.3333H34.7083L27.375 45.3333Z" fill="white"/>
</svg>
